<?xml version="1.0" encoding="UTF-8"?><svg id="Layer_1" xmlns="http://www.w3.org/2000/svg" viewBox="0 0 478.31744 416.81948"><defs><style>.cls-1{fill:#b42024;stroke-width:0px;}</style></defs><g id="logo"><g id="DR.NUT"><g id="NUT"><polygon id="t" class="cls-1" points="229.50309 181.07166 229.50309 212.68458 404.63789 212.68458 404.63789 415.25321 437.00497 415.25321 437.00497 212.68458 478.31744 212.68458 478.31744 181.07166 229.50309 181.07166"/><path id="u" class="cls-1" d="m346.54763,247.57381v77.46144c0,23.50473-1.54151,32.94975-2.82867,36.72012-2.71922,7.87264-7.53028,14.05817-14.70755,18.90993-7.14027,4.82882-16.05174,7.27764-26.48314,7.27764-10.44065,0-19.50473-2.52377-26.94097-7.50402-7.41158-4.96036-12.29662-11.53746-14.91565-20.0464-1.82361-6.2253-2.74851-18.12221-2.74851-35.35728v-77.45532l-29.99855-.03824v79.78484c0,23.05504,2.66065,39.98114,8.13378,51.74497,5.51861,11.85561,13.99229,21.22416,25.18827,27.84715,11.10504,6.56945,25.01871,9.90083,41.35563,9.90083,16.34155,0,30.21205-3.33444,41.2246-9.91154,11.08346-6.61993,19.5001-15.90588,25.01562-27.60089,5.48007-11.62618,8.1438-28.16071,8.1438-50.54733v-81.18592h-30.43866Z"/><polygon id="n" class="cls-1" points="167.81494 181.07166 167.81494 350.2745 25.44493 181.07166 0 181.07166 0 415.25321 31.54392 415.25321 31.54392 248.14892 172.75548 415.25321 198.19733 415.25321 198.19733 181.07166 167.81494 181.07166"/></g><g id="DR."><ellipse id="_." class="cls-1" cx="181.60529" cy="127.80368" rx="15.78506" ry="15.66268"/><path id="r" class="cls-1" d="m185.36041,50.41107l1.37271.2585,8.95232-27.73549-1.64864-.39692c-4.90354-1.18158-8.58467-1.75593-11.25225-1.75593-9.28374,0-16.95738,2.29434-22.80587,6.81954-4.7756,3.69465-9.67452,9.33643-14.60195,16.80756v-20.34695h-28.84551v120.7816h29.44978v-66.73694c0-8.27032,2.86644-15.25964,8.51915-20.77294,5.65965-5.52094,12.78683-8.3208,21.18266-8.3208,1.5022,0,4.75864.47034,9.6776,1.39878Z"/><path id="d" class="cls-1" d="m82.93015,39.71181c-11.44725-12.5615-29.06209-18.93058-52.3543-18.93058H.03083v124.06174h30.73231c22.4097,0,39.76479-6.33008,51.58432-18.81357,11.79101-12.45749,17.76976-26.99748,17.76976-43.21692,0-16.08255-5.7822-30.58353-17.18707-43.09991v-.00076Zm-23.29376,75.33918c-5.29277,3.4438-10.95937,5.70678-16.84177,6.727-3.60713.62482-8.40585,1.06763-14.28363,1.31848V41.78895c9.43173.32427,17.19169,1.51579,23.08334,3.54475,6.86897,2.36699,12.87084,7.07268,17.83989,13.98552,4.96906,6.91361,7.48788,14.74953,7.48788,23.29059,0,6.79659-1.57542,13.10985-4.68157,18.76463-3.11,5.65554-7.35069,10.25799-12.60416,13.67655Z"/></g><path id="Almond" class="cls-1" d="m465.29004,68.3257c-6.91628-8.27187-17.07018-18.68792-31.32986-28.80602-41.57542-29.50009-113.1845-53.01406-158.64625-30.6442-18.15891,8.93529-28.81284,23.97567-30.01406,25.68295-11.4245,16.23852-12.31081,31.85178-12.14847,39.15662-.18768,7.3185.64475,23.05031,12.14855,39.39979,1.23752,1.75879,11.86452,16.75218,30.01411,25.68285,45.4618,22.36977,117.07083-1.1443,158.64619-30.64451,14.25966-10.11813,24.41354-20.5342,31.3298-28.80608,2.78307-3.32845,2.78307-7.69295-.00001-11.02139ZM315.17929,12.9851c20.88284-2.01714,38.43447,3.23336,51.6876,7.19817,15.75269,4.71245,28.08939,10.7702,36.4228,15.44607-8.88758-2.76065-20.55835-5.82086-34.45352-7.97667-25.48578-3.95406-45.06527-2.788-49.1233-2.52066-15.26943,1.00592-38.32733,4.27686-64.83591,15.14615,10.58709-9.27272,31.49382-24.51038,60.30233-27.29306Zm51.08256,36.59069c-16.40167-1.18884-36.07904-1.27002-58.08255,1.41848-13.75181,1.68022-26.2311,4.17577-37.28219,6.97938,5.53556-3.95832,14.43547-9.39793,26.44846-13.04668,16.90343-5.13407,30.82943-3.94648,37.63211-3.29916,7.51101.7147,18.6515,2.59374,31.28417,7.94798Zm-43.82821,78.58001c-12.05461-.05987-29.08444-.34972-47.00295-10.49734-9.95584-5.63813-16.83637-12.42241-21.13102-17.37612,7.00385,2.67987,16.30609,5.81026,27.59765,8.47728,1.79123.42301,19.46696,4.54572,39.53896,5.6971,36.83746,2.11312,70.77458-6.40475,85.02738-10.44478-15.48678,9.08179-46.28384,24.33132-84.03002,24.14386Zm21.76304-29.24256c-17.24487.92782-27.87821-1.46554-33.40067-2.99924-11.66306-3.23892-20.53368-8.19793-26.29739-11.99695,7.16956,1.31371,16.80554,2.79313,28.25665,3.71829,20.40574,1.64855,35.85783.67118,47.61262-.1192,15.15998-1.01937,34.68783-3.18933,57.27943-7.94798-14.60581,6.62659-42.5002,17.67986-73.45064,19.34508Z"/></g></g></svg>