<?xml version="1.0" encoding="UTF-8"?><svg id="Layer_1" xmlns="http://www.w3.org/2000/svg" viewBox="0 0 115.96703 19.72776"><defs><style>.cls-1{fill:none;}.cls-1,.cls-2{stroke:#fff;stroke-miterlimit:10;}.cls-3{stroke-width:0px;}.cls-3,.cls-2{fill:#fff;}</style></defs><polygon class="cls-2" points="10.3715 1.12978 13.24444 6.95098 19.66852 7.88445 15.02001 12.41563 16.11737 18.81376 10.3715 15.79296 4.62563 18.81376 5.72299 12.41563 1.07448 7.88445 7.49856 6.95098 10.3715 1.12978"/><polygon class="cls-2" points="34.17751 1.12978 37.05044 6.95098 43.47452 7.88445 38.82602 12.41563 39.92338 18.81376 34.17751 15.79296 28.43163 18.81376 29.529 12.41563 24.88049 7.88445 31.30457 6.95098 34.17751 1.12978"/><polygon class="cls-3" points="57.98351 1.12978 60.85645 6.95098 67.28053 7.88445 62.63202 12.41563 63.72939 18.81376 57.98351 15.79296 52.23764 18.81376 53.335 12.41563 48.68649 7.88445 55.11058 6.95098 57.98351 1.12978"/><polygon class="cls-2" points="81.78952 1.12978 84.66246 6.95098 91.08654 7.88445 86.43803 12.41563 87.53539 18.81376 81.78952 15.79296 76.04365 18.81376 77.14101 12.41563 72.4925 7.88445 78.91658 6.95098 81.78952 1.12978"/><polygon class="cls-1" points="105.59553 1.12978 108.46846 6.95098 114.89255 7.88445 110.24404 12.41563 111.3414 18.81376 105.59553 15.79296 99.84965 18.81376 100.94702 12.41563 96.29851 7.88445 102.72259 6.95098 105.59553 1.12978"/></svg>