<?xml version="1.0" encoding="UTF-8"?><svg id="Layer_1" xmlns="http://www.w3.org/2000/svg" viewBox="0 0 300 274.66394"><defs><style>.cls-1{fill:none;}.cls-1,.cls-2{stroke-width:0px;}.cls-2{fill:#fff;}</style></defs><path class="cls-2" d="m224.57678,90.10297c8.49274-3.92621,14.38837-12.51526,14.38837-22.48627,0-13.67786-11.08807-24.76599-24.76599-24.76599-1.76123,0-3.47833.18695-5.1355.5365,1.4079-3.11072,2.19818-6.56073,2.19818-10.19733,0-13.67786-11.08807-24.76593-24.76593-24.76593-7.94623,0-15.01306,3.7467-19.5448,9.565-2.94855-10.38184-12.49249-17.98895-23.81946-17.98895s-20.87091,7.60712-23.8194,17.98901c-4.53174-5.8183-11.59857-9.56506-19.5448-9.56506-13.67786,0-24.76599,11.08807-24.76599,24.76593,0,3.6366.79028,7.08661,2.19818,10.19733-1.65717-.34955-3.37427-.5365-5.1355-.5365-13.67786,0-24.76593,11.08813-24.76593,24.76599,0,9.97101,5.89563,18.56,14.38831,22.48621-7.56647,4.23816-12.68378,12.32819-12.68378,21.61743,0,13.67786,11.08807,24.76599,24.76593,24.76599,3.45648,0,6.74646-.71014,9.73505-1.9892.08612.08136.17194.16296.25861.24396-.43353,1.8349-.66986,3.74603-.66986,5.71344,0,13.67786,11.08807,24.76599,24.76593,24.76599,8.00348,0,15.11578-3.80005,19.64325-9.69031.33386.05487.67358.09583,1.00891.14722,1.51929,85.08612-28.7431,118.98651-28.7431,118.98651h86.72845s-30.26245-33.90039-28.74316-118.98651c.33533-.05139.67505-.09235,1.00891-.14722,4.52747,5.89026,11.63983,9.69031,19.64331,9.69031,13.67786,0,24.76593-11.08813,24.76593-24.76599,0-1.96741-.23633-3.87854-.66986-5.7135.08661-.08099.17242-.1626.25854-.2439,2.98859,1.27905,6.27856,1.9892,9.73505,1.9892,13.67786,0,24.76599-11.08813,24.76599-24.76599,0-9.28925-5.11737-17.37915-12.68384-21.61737Z"/><rect class="cls-1" x="284.57447" y="152.41708" width="15.42553" height="15.42553"/><rect class="cls-1" y="152.1724" width="15.42553" height="15.42553"/></svg>