<?xml version="1.0" encoding="UTF-8"?><svg id="Layer_1" xmlns="http://www.w3.org/2000/svg" xmlns:xlink="http://www.w3.org/1999/xlink" viewBox="0 0 799.19995 335.52001"><defs><style>.cls-1{fill:url(#linear-gradient);stroke-width:0px;}</style><linearGradient id="linear-gradient" x1="399.59998" y1="335.52001" x2="399.59998" y2="0" gradientUnits="userSpaceOnUse"><stop offset=".04004" stop-color="#d58e48"/><stop offset=".50559" stop-color="#e6a569"/><stop offset=".99908" stop-color="#fdc27c"/></linearGradient></defs><path class="cls-1" d="m749.90002,22.01147c-22.90002,0-40.5-6.70312-49.90002-11.00519C690.59998,6.70428,673-.09895,649.90002.00109c-22.90002,0-40.5,6.70319-49.90002,11.00519-9.40002,4.30206-27,11.10522-50.09998,11.00519-22.90002,0-40.5-6.70312-49.90002-11.00519C490.60004,6.70428,473-.09895,449.90002.00109c-22.90002,0-40.5,6.70319-49.90002,11.00519-9.39996,4.30206-27,11.10522-50.09998,11.00519-22.90002,0-40.5-6.70312-49.90002-11.00519C290.60004,6.70428,273-.09895,249.90002.00109,227,.00109,209.40002,6.70428,200,11.00628c-9.39996,4.30206-27,11.10522-50.09998,11.00519-22.90002,0-40.5-6.70312-49.90002-11.00519C90.60004,6.70428,73-.09895,49.90002.00109,27,.00109,9.40002,6.70428,0,11.00628v324.51373h799.19995V11.09637c-8.90326,2.37964-26.19995,10.9151-49.29993,10.9151Z"/></svg>