<?xml version="1.0" encoding="UTF-8"?><svg id="Layer_1" xmlns="http://www.w3.org/2000/svg" xmlns:xlink="http://www.w3.org/1999/xlink" viewBox="0 0 799.2 2520.52953"><defs><style>.cls-1{fill:#6d3b18;}.cls-1,.cls-2{stroke-width:0px;}.cls-2{fill:url(#New_Gradient_Swatch_copy_2);}</style><linearGradient id="New_Gradient_Swatch_copy_2" x1="399.6" y1="335.52001" x2="399.6" y2="0" gradientUnits="userSpaceOnUse"><stop offset=".01769" stop-color="#6d3a17"/><stop offset="1" stop-color="#b55b27"/></linearGradient></defs><path class="cls-2" d="m749.90005,22.01147c-22.90002,0-40.5-6.70325-49.90002-11.00525S673.00002-.09901,649.90005.00109c-22.90002,0-40.5,6.70312-49.90002,11.00513s-27,11.10522-50.09998,11.00525c-22.90002,0-40.5-6.70325-49.90002-11.00525C490.60006,6.70422,473.00002-.09901,449.90005.00109c-22.90002,0-40.5,6.70312-49.90002,11.00513-9.39996,4.302-27,11.10522-50.09998,11.00525-22.90002,0-40.5-6.70325-49.90002-11.00525C290.60006,6.70422,273.00002-.09901,249.90005.00109,227.00002.00109,209.40005,6.70422,200.00002,11.00622c-9.39996,4.302-27,11.10522-50.09998,11.00525-22.90002,0-40.5-6.70325-49.90002-11.00525C90.60006,6.70422,73.00002-.09901,49.90005.00109,27.00002.00109,9.40005,6.70422.00002,11.00622v324.51379h799.19995V11.09631c-8.90326,2.37964-26.19995,10.91516-49.29993,10.91516Z"/><rect class="cls-1" y="333.52" width="799.2" height="2187.00953"/></svg>